<?xml version="1.0" standalone="no"?>
<!DOCTYPE svg PUBLIC "-//W3C//DTD SVG 20010904//EN"
 "http://www.w3.org/TR/2001/REC-SVG-20010904/DTD/svg10.dtd">
<svg version="1.0" xmlns="http://www.w3.org/2000/svg"
 width="500.000000pt" height="500.000000pt" viewBox="0 0 500.000000 500.000000"
 preserveAspectRatio="xMidYMid meet">

<g transform="translate(0.000000,500.000000) scale(0.100000,-0.100000)"
fill="#000000" stroke="none">
<path d="M2295 4094 c-295 -29 -544 -150 -784 -379 -99 -95 -159 -175 -207
-279 -22 -48 -61 -107 -105 -158 -80 -93 -108 -137 -153 -245 -84 -199 -114
-428 -82 -624 27 -163 71 -264 156 -358 27 -30 30 -40 25 -73 -6 -33 1 -54 54
-163 34 -69 61 -128 61 -131 0 -17 96 -193 135 -246 96 -133 241 -260 400
-351 149 -85 370 -160 457 -155 l53 3 0 845 c0 838 0 845 -21 891 -31 66 -75
111 -140 143 -57 28 -65 29 -309 40 -233 10 -253 13 -287 34 -45 28 -83 72
-105 121 -13 28 -16 68 -16 176 l0 140 36 70 c20 39 47 83 60 98 l24 28 7
-148 c8 -171 25 -222 96 -293 73 -73 93 -78 361 -82 225 -3 238 -2 259 17 48
43 46 88 -7 123 -23 14 -60 18 -238 22 -240 6 -254 10 -295 95 -20 42 -21 57
-18 212 4 198 7 207 101 283 137 112 310 168 520 169 l97 1 0 -1494 c0 -1273
2 -1495 14 -1505 28 -24 79 -24 109 -1 l27 21 0 1490 0 1489 83 0 c215 0 439
-78 561 -194 66 -64 69 -76 64 -303 -3 -146 -5 -164 -24 -190 -43 -58 -65 -63
-273 -68 -196 -5 -230 -11 -268 -47 -32 -30 -29 -54 11 -94 l34 -34 233 7
c264 7 289 13 358 82 76 76 85 105 89 284 2 86 6 157 9 157 13 0 48 -52 81
-120 l37 -75 0 -145 c0 -159 -10 -194 -72 -251 -62 -58 -82 -62 -308 -70 -216
-7 -267 -13 -321 -35 -44 -19 -117 -94 -145 -151 l-24 -48 -3 -827 c-2 -606 0
-833 8 -848 10 -19 18 -21 63 -17 46 4 138 26 233 55 69 22 262 129 353 197
173 129 314 303 377 466 14 35 47 107 74 160 40 77 50 106 50 146 0 44 4 54
45 99 129 142 182 508 113 794 -37 159 -113 308 -215 422 -40 45 -73 87 -73
93 0 5 -13 38 -29 72 -114 241 -407 497 -677 592 -143 50 -227 62 -464 66
-124 1 -243 1 -265 -1z m-971 -1208 c37 -63 115 -136 176 -165 53 -25 63 -26
290 -31 243 -5 256 -7 310 -52 49 -40 50 -48 50 -310 l0 -248 -107 0 c-60 1
-225 5 -368 9 -242 8 -264 10 -318 33 -77 33 -141 79 -171 125 -30 45 -66 178
-66 245 l0 48 33 -6 c78 -14 98 -25 129 -75 16 -27 47 -64 69 -83 61 -51 105
-60 277 -51 123 6 153 10 185 28 46 26 53 19 63 -61 7 -58 24 -82 57 -82 40 0
100 53 112 98 11 43 -21 124 -66 169 -50 51 -88 60 -174 44 -34 -6 -126 -11
-203 -11 -155 0 -156 0 -192 69 -33 65 -133 120 -228 126 -29 2 -56 6 -59 8
-3 3 2 41 11 84 18 85 61 187 103 242 l27 35 18 -74 c10 -40 29 -92 42 -114z
m2453 141 c50 -73 103 -225 103 -295 0 -26 -3 -28 -66 -40 -94 -18 -153 -51
-213 -121 l-53 -61 -72 0 c-40 0 -117 7 -172 15 -135 20 -170 19 -231 -9 -66
-31 -113 -105 -113 -177 0 -40 6 -53 41 -93 26 -29 49 -46 63 -46 34 0 65 40
76 99 15 79 21 84 77 56 32 -16 185 -34 288 -35 77 0 148 32 195 89 19 22 49
57 65 77 22 26 42 38 73 44 23 4 44 5 46 1 10 -15 -14 -161 -35 -216 -28 -75
-102 -155 -176 -192 l-55 -26 -366 -9 c-202 -4 -373 -6 -379 -3 -10 3 -13 62
-13 248 0 237 1 245 23 278 12 19 42 44 67 57 42 21 57 22 249 22 178 0 213 3
274 21 63 19 79 29 137 88 69 69 103 129 121 211 6 28 14 50 17 50 4 0 17 -15
29 -33z m-1699 -1115 l72 -2 0 -395 c0 -217 -3 -395 -6 -395 -4 0 -39 10 -78
21 -79 24 -136 50 -182 84 -29 22 -31 30 -38 102 -3 43 -11 103 -17 134 -9 47
-8 61 5 88 10 18 28 37 42 43 21 10 28 8 52 -15 34 -33 49 -34 83 -4 43 36 52
62 35 95 -17 33 -79 79 -126 92 -83 24 -201 -43 -236 -135 -20 -53 -15 -162
10 -235 8 -24 13 -47 10 -50 -4 -3 -47 38 -98 91 -124 130 -186 260 -211 439
l-6 45 308 0 c169 -1 341 -2 381 -3z m1542 -18 c0 -52 -33 -172 -70 -251 -43
-92 -85 -152 -167 -235 -57 -58 -81 -72 -69 -41 14 35 26 169 20 208 -23 144
-167 234 -280 177 -52 -27 -104 -80 -104 -108 0 -27 34 -70 70 -89 38 -20 37
-20 72 17 34 36 53 32 77 -18 12 -23 12 -41 3 -96 -7 -38 -12 -97 -12 -131 0
-35 -6 -70 -12 -80 -18 -22 -105 -64 -202 -97 l-81 -28 -3 386 c-1 212 0 388
4 391 3 3 168 8 367 12 199 3 368 6 375 7 7 1 12 -9 12 -24z"/>
<path d="M2094 3749 c-203 -26 -308 -249 -182 -385 53 -58 105 -74 232 -74
105 1 123 6 144 47 17 32 15 49 -12 80 -23 27 -28 28 -114 28 -74 0 -94 3
-111 19 -63 58 19 136 128 122 81 -11 141 47 113 109 -23 49 -93 68 -198 54z"/>
<path d="M2790 3749 c-40 -9 -90 -59 -90 -90 0 -12 14 -34 31 -50 29 -27 37
-29 111 -29 78 0 81 -1 114 -34 41 -41 42 -49 9 -81 -22 -23 -32 -25 -118 -25
-85 0 -96 -2 -115 -23 -30 -32 -28 -63 7 -97 l29 -29 118 5 c148 7 175 15 219
67 79 92 66 217 -31 311 -61 59 -196 95 -284 75z"/>
</g>
</svg>
